Coordinates
version=1
nRows=24
nColumns=24
inDegrees=yes

Units are S.I. units (second, meters, Newtons, ...)
Angles are in degrees.

endheader
time	pelvis_tilt	pelvis_list	pelvis_rotation	pelvis_tx	pelvis_ty	pelvis_tz	hip_flexion_r	hip_adduction_r	hip_rotation_r	knee_angle_r	ankle_angle_r	subtalar_angle_r	mtp_angle_r	hip_flexion_l	hip_adduction_l	hip_rotation_l	knee_angle_l	ankle_angle_l	subtalar_angle_l	mtp_angle_l	lumbar_extension	lumbar_bending	lumbar_rotation
      1.43716667	     -1.32484718	      1.79677881	     -4.74340809	      0.42797758	      1.07371660	      0.25604581	     18.33005973	     -4.39617633	     -2.42132006	    -63.68142603	      6.72261320	     -3.02319184	      7.30495243	      9.26341370	      3.24042677	     -3.55337476	    -14.34597413	     10.82505748	      6.75207863	      1.64152218	    -17.32513786	     -5.90197877	     -1.51480549
      1.44133333	     -1.27877015	      1.74163792	     -4.63978706	      0.43285690	      1.07436439	      0.25557819	     18.64933789	     -4.32697987	     -2.58717903	    -63.02317647	      7.02030283	     -2.80038505	      7.38286602	      8.74496290	      3.25027260	     -3.43588643	    -13.96624940	     10.87477652	      6.77213804	      1.65593761	    -17.33438305	     -5.79571195	     -1.71498669
      1.44550000	     -1.29645844	      1.66640761	     -4.53810963	      0.43774075	      1.07486246	      0.25513544	     19.02872346	     -4.22476016	     -2.74967892	    -62.33725760	      7.27603608	     -2.67328309	      7.41003387	      8.31236924	      3.22384728	     -3.35836661	    -13.62878464	     10.93873479	      6.86267000	      1.66167871	    -17.27465457	     -5.64985039	     -1.75360864
      1.44966667	     -1.26085056	      1.61837738	     -4.43856274	      0.44258991	      1.07538315	      0.25468852	     19.34990232	     -4.16572286	     -2.91549252	    -61.63859670	      7.54543871	     -2.49886452	      7.45845593	      7.81691699	      3.23604778	     -3.24719630	    -13.27013265	     11.01625311	      6.89292623	      1.67162384	    -17.27716242	     -5.54689291	     -1.90179620
      1.45383333	     -1.28081673	      1.55355880	     -4.34669232	      0.44743815	      1.07578420	      0.25428170	     19.72223659	     -4.07386603	     -3.06835019	    -60.91236195	      7.78905543	     -2.44917603	      7.47937650	      7.39193686	      3.21654311	     -3.17627236	    -12.93445034	     11.06373356	      6.97162272	      1.67621814	    -17.21689985	     -5.41800003	     -1.95041794
      1.45800000	     -1.27773354	      1.47894725	     -4.23968007	      0.45228336	      1.07619843	      0.25385854	     20.04873148	     -3.98145741	     -3.24317175	    -60.14446290	      8.02103104	     -2.38255902	      7.50425349	      6.94856963	      3.18999385	     -3.07791073	    -12.61554414	     11.13591290	      7.01208137	      1.68245759	    -17.17699920	     -5.28954330	     -2.04907380
      1.46216667	     -1.25166834	      1.42926712	     -4.15072881	      0.45708892	      1.07657873	      0.25346191	     20.35956634	     -3.91675971	     -3.39689556	    -59.37829976	      8.22682760	     -2.35421787	      7.53798636	      6.47010943	      3.19427066	     -2.95255970	    -12.26485709	     11.21493407	      7.01197202	      1.69246977	    -17.17916761	     -5.17509259	     -2.20517617
      1.46633333	     -1.29398828	      1.38605961	     -4.07519108	      0.46190091	      1.07679097	      0.25312193	     20.74372007	     -3.84391869	     -3.52940977	    -58.60279154	      8.44877237	     -2.38507259	      7.54969211	      6.08216690	      3.18943473	     -2.89453472	    -11.94906181	     11.27767832	      7.07991688	      1.69699106	    -17.09553220	     -5.07940209	     -2.24127802
      1.47050000	     -1.30144401	      1.31902943	     -3.97932092	      0.46669060	      1.07705348	      0.25275724	     21.06355811	     -3.75539032	     -3.68897362	    -57.77660793	      8.63259547	     -2.42865492	      7.56271182	      5.66646211	      3.16374930	     -2.79753292	    -11.65680405	     11.35751580	      7.09585936	      1.70337253	    -17.04855413	     -4.96323218	     -2.32855923
      1.47466667	     -1.32681421	      1.27101462	     -3.89956353	      0.47146279	      1.07722037	      0.25243825	     21.40865214	     -3.68023447	     -3.82598460	    -56.95146735	      8.81105778	     -2.51237741	      7.57148014	      5.26863845	      3.15405003	     -2.70772734	    -11.35504702	     11.43611361	      7.11502627	      1.70987372	    -16.98983431	     -4.86137929	     -2.41200877
      1.47883333	     -1.33885949	      1.23719860	     -3.82577766	      0.47620133	      1.07735300	      0.25213289	     21.73875634	     -3.62088974	     -3.95136070	    -56.11699032	      8.95003498	     -2.63073722	      7.57895518	      4.85519309	      3.16267650	     -2.58695536	    -11.04500641	     11.52728045	      7.08822468	      1.72025078	    -16.95330032	     -4.77519306	     -2.53467053
      1.48300000	     -1.36949726	      1.19870339	     -3.75540748	      0.48093253	      1.07743164	      0.25185468	     22.07836697	     -3.55072746	     -4.07048109	    -55.25825901	      9.09958870	     -2.76668125	      7.57995380	      4.47378321	      3.15958038	     -2.49547916	    -10.75974994	     11.61036384	      7.08976376	      1.72952531	    -16.89212112	     -4.69137961	     -2.59779590
      1.48716667	     -1.39722743	      1.15733436	     -3.68944405	      0.48564633	      1.07747058	      0.25161117	     22.40624036	     -3.47366330	     -4.18315068	    -54.38113529	      9.25510631	     -2.91734808	      7.57695225	      4.09998673	      3.14809265	     -2.43179725	    -10.49760488	     11.69525014	      7.11438399	      1.73623123	    -16.83780324	     -4.61174387	     -2.63913301
      1.49133333	     -1.43650942	      1.12240384	     -3.62543572	      0.49034407	      1.07744531	      0.25138168	     22.74239421	     -3.39953832	     -4.28492415	    -53.49083570	      9.34437656	     -3.12460501	      7.56547921	      3.73786637	      3.14422258	     -2.33621197	    -10.23039127	     11.80546637	      7.10947755	      1.74697959	    -16.77499410	     -4.53447636	     -2.71394212
      1.49550000	     -1.46396684	      1.09081975	     -3.56347416	      0.49502641	      1.07741065	      0.25117715	     23.05646752	     -3.32766677	     -4.38163237	    -52.58316297	      9.47060882	     -3.30661296	      7.55483857	      3.37506714	      3.14013505	     -2.27061970	     -9.98738724	     11.90137837	      7.12694697	      1.75452578	    -16.72508547	     -4.46758826	     -2.75337322
      1.49966667	     -1.49167968	      1.06528730	     -3.50690756	      0.49968379	      1.07731608	      0.25100073	     23.36859434	     -3.25764946	     -4.46646002	    -51.66755339	      9.56497555	     -3.52390018	      7.54012051	      3.01580004	      3.14084457	     -2.19832935	     -9.74843572	     12.01155837	      7.13708861	      1.76242346	    -16.68090176	     -4.41000353	     -2.79761339
      1.50383333	     -1.52969059	      1.05231565	     -3.45499303	      0.50432699	      1.07716068	      0.25084892	     23.68968911	     -3.19613370	     -4.53700619	    -50.74562470	      9.64386095	     -3.74729264	      7.52232471	      2.67260136	      3.15320905	     -2.12529904	     -9.51690029	     12.12478512	      7.13874849	      1.77041799	    -16.62795241	     -4.36815864	     -2.84280614
      1.50800000	     -1.58356511	      1.04507296	     -3.41111927	      0.50896910	      1.07693150	      0.25072272	     24.02693863	     -3.13761698	     -4.60216024	    -49.82296827	      9.72739237	     -3.94818000	      7.50650183	      2.34579708	      3.16919342	     -2.06036210	     -9.28136544	     12.25108851	      7.15533334	      1.77761084	    -16.56260353	     -4.33718888	     -2.87644568
      1.51216667	     -1.61088219	      1.04249869	     -3.35935701	      0.51357309	      1.07672371	      0.25061557	     24.32053757	     -3.07864800	     -4.64887375	    -48.86814361	      9.76604029	     -4.19746293	      7.48342245	      2.00777196	      3.18895001	     -1.98442369	     -9.08302619	     12.36611011	      7.14023583	      1.78570312	    -16.52275923	     -4.30913013	     -2.91900592
      1.51633333	     -1.65067360	      1.04493129	     -3.31379328	      0.51818393	      1.07645190	      0.25053015	     24.62514967	     -3.02248388	     -4.69080435	    -47.91391732	      9.80767837	     -4.41576679	      7.45913311	      1.68015650	      3.21271266	     -1.90777582	     -8.87768726	     12.49070806	      7.12911506	      1.79409844	    -16.47175311	     -4.29414043	     -2.95660012
      1.52050000	     -1.69984709	      1.05870487	     -3.27116438	      0.52278528	      1.07612080	      0.25046765	     24.93788378	     -2.97405164	     -4.72153572	    -46.95691847	      9.83995977	     -4.62714249	      7.43273705	      1.36576463	      3.24677405	     -1.82933661	     -8.67660504	     12.61597586	      7.11173239	      1.80290287	    -16.41620234	     -4.29127494	     -2.98991782
      1.52466667	     -1.73451302	      1.07322548	     -3.23161705	      0.52737504	      1.07577717	      0.25042017	     25.22819992	     -2.92468645	     -4.74599925	    -45.99064121	      9.87600869	     -4.81319145	      7.40868085	      1.03904464	      3.28059815	     -1.75875906	     -8.48173388	     12.74579812	      7.09951205	      1.81097908	    -16.38157091	     -4.29332258	     -3.01603876
      1.52883333	     -1.77193718	      1.09312202	     -3.19409288	      0.53196975	      1.07539259	      0.25039116	     25.51405892	     -2.87631379	     -4.75599791	    -45.01378739	      9.89522516	     -4.98434120	      7.38406569	      0.71721465	      3.31923024	     -1.68441871	     -8.29279174	     12.88132011	      7.08866826	      1.81974846	    -16.33888759	     -4.29880055	     -3.03893253
      1.53300000	     -1.80948177	      1.13227222	     -3.16164799	      0.53654379	      1.07494994	      0.25039020	     25.80524287	     -2.84627614	     -4.75803059	    -44.04882143	      9.93014814	     -5.11746151	      7.36405720	      0.40099915	      3.37635467	     -1.62054023	     -8.11133681	     13.01583907	      7.07401604	      1.82753618	    -16.30608193	     -4.33518873	     -3.06105832
